<?xml version="1.0" encoding="UTF-8"?>
<svg width="50px" height="50px" viewBox="0 0 50 50" version="1.1" xmlns="http://www.w3.org/2000/svg" xmlns:xlink="http://www.w3.org/1999/xlink">
    <!-- Generator: sketchtool 49.2 (51160) - http://www.bohemiancoding.com/sketch -->
    <title>8DB9DD2D-C008-4B9F-ABF0-430E023FF9A1</title>
    <desc>Created with sketchtool.</desc>
    <defs></defs>
    <g id="Stlyes" stroke="none" stroke-width="1" fill="none" fill-rule="evenodd">
        <g id="Styles_Desktop-01" transform="translate(-170.000000, -480.000000)" fill="#B4B8BE" fill-rule="nonzero">
            <g id="Icons" transform="translate(100.000000, 276.000000)">
                <g id="Icon-/-Tooltip-/-Inverse" transform="translate(70.000000, 204.000000)">
                    <path d="M25,50 C11.1928813,50 0,38.8071187 0,25 C0,11.1928813 11.1928813,0 25,0 C38.8071187,0 50,11.1928813 50,25 C50,38.8071187 38.8071187,50 25,50 Z M27.8714436,37.6448894 C27.8714436,36.0593349 26.5855545,34.7734457 25,34.7734457 C23.4144455,34.7734457 22.1285564,36.0593349 22.1285564,37.6448894 C22.1285564,39.2304438 23.4144455,40.516333 25,40.516333 C26.5855545,40.516333 27.8714436,39.2304438 27.8714436,37.6448894 Z M26.8177028,32.3761855 L26.8177028,27.6677561 C30.4380373,26.8421042 33.1401475,23.60306 33.1401475,19.7312961 C33.1401475,15.2374171 29.493879,11.5911486 25,11.5911486 C20.5046475,11.5911486 16.8598525,15.2367829 16.8598525,19.7312961 L20.4952582,19.7312961 C20.4952582,17.2443746 22.512614,15.2265543 25,15.2265543 C27.4860999,15.2265543 29.5047418,17.2451962 29.5047418,19.7312961 C29.5047418,22.2199681 27.4877434,24.2360379 25,24.2360379 L23.1822972,24.2360379 L23.1822972,32.3761855 L26.8177028,32.3761855 Z" id="icon-tooltipinverse"></path>
                </g>
            </g>
        </g>
    </g>
</svg>