<?xml version="1.0" encoding="UTF-8"?>
<svg width="26px" height="22px" viewBox="0 0 26 22" version="1.1" xmlns="http://www.w3.org/2000/svg" xmlns:xlink="http://www.w3.org/1999/xlink">
    <!-- Generator: sketchtool 49.2 (51160) - http://www.bohemiancoding.com/sketch -->
    <title>Screenshare Disconnected</title>
    <desc>Created with sketchtool.</desc>
    <defs></defs>
    <g id="Stlyes" stroke="none" stroke-width="1" fill="none" fill-rule="evenodd">
        <g id="Styles_Desktop-01" transform="translate(-322.000000, -841.000000)" fill="#FFFFFF">
            <g id="Video-Controls" transform="translate(100.000000, 693.000000)">
                <g id="Screenshare-/-Inactive" transform="translate(210.000000, 133.000000)">
                    <path d="M36.4705288,19.7676676 L37.9999364,18.7801073 L37.9999364,31.0151632 C37.9999364,31.9428581 37.245283,32.6975115 36.3175881,32.6975115 L25.764676,32.6975115 L25.764676,34.7899454 L29.5908167,34.7899454 C29.8901436,34.7899454 30.1344119,35.0342137 30.1344119,35.3335406 L30.1344119,35.7757578 C30.1344119,36.0750847 29.8901436,36.319353 29.5908167,36.319353 L20.4091278,36.319353 C20.1093639,36.319353 19.8655326,36.0750847 19.8655326,35.7757578 L19.8655326,35.3335406 C19.8655326,35.0342137 20.1093639,34.7899454 20.4091278,34.7899454 L24.2352685,34.7899454 L24.2352685,32.6975115 L15.9002018,32.6975115 L18.2685986,31.1681039 L36.3175881,31.1681039 C36.3993021,31.1681039 36.4705288,31.0968772 36.4705288,31.0151632 L36.4705288,19.7676676 Z M12.1070667,32.0093655 C11.8842101,31.6375009 12.0205459,31.1323595 12.4112003,30.8802257 L36.7834019,15.1404372 C37.1740563,14.8883035 37.6708953,14.9848746 37.8933148,15.3563022 C38.1157344,15.7272928 37.9789616,16.2328712 37.5891812,16.485005 L13.2165426,32.2243565 C13.0740892,32.3165579 12.9172157,32.3620031 12.7647119,32.364625 C12.4999059,32.3694317 12.2482091,32.2448942 12.1070667,32.0093655 Z M13.5294157,27.597432 L12.0000081,28.5849923 L12.0000081,16.6824733 C12.0000081,15.7547784 12.7546615,15.000125 13.6823564,15.000125 L33.5849878,15.000125 L31.216591,16.5295326 L13.6823564,16.5295326 C13.6010793,16.5295326 13.5294157,16.6007593 13.5294157,16.6824733 L13.5294157,27.597432 Z" id="icon-noscreen"></path>
                </g>
            </g>
        </g>
    </g>
</svg>
