<svg enable-background="new 0 0 50 50" viewBox="0 0 50 50" xmlns="http://www.w3.org/2000/svg"><path d="m46.875 12.5c1.726 0 3.125 1.399 3.125 3.125v31.25c0 1.726-1.399 3.125-3.125 3.125h-31.25c-1.726 0-3.125-1.399-3.125-3.125v-9.375h-9.375c-1.726 0-3.125-1.399-3.125-3.125v-31.25c0-1.726 1.399-3.125 3.125-3.125h31.25c1.726 0 3.125 1.399 3.125 3.125v9.375zm0 34.375v-31.25h-15.032-16.218v1.25 3.75 3.125 3.75 3.125 16.25zm-33.736-33.125c.571-.755 1.467-1.25 2.486-1.25h18.75v-9.375h-31.25v31.25h9.375v-3.75h-5.312c-.863 0-1.562-.699-1.562-1.562s.698-1.563 1.562-1.563h5.312v-3.75h-5.312c-.863 0-1.562-.699-1.562-1.562s.699-1.562 1.562-1.562h5.312v-3.75h-5.312c-.863 0-1.562-.699-1.562-1.562s.699-1.562 1.562-1.562h5.951zm6.549 26.25h16.125c.863 0 1.562.699 1.562 1.562s-.699 1.562-1.562 1.562h-16.125c-.863 0-1.562-.699-1.562-1.562s.698-1.562 1.562-1.562zm23.124-6.875c.863 0 1.562.699 1.562 1.562s-.699 1.562-1.562 1.562h-23.124c-.863 0-1.562-.699-1.562-1.562s.699-1.562 1.562-1.562zm0-6.875c.863 0 1.562.699 1.562 1.562s-.699 1.562-1.562 1.562h-23.124c-.863 0-1.562-.699-1.562-1.562s.699-1.562 1.562-1.562zm-24.687-5.312c0-.863.699-1.562 1.562-1.562h23.125c.863 0 1.562.699 1.562 1.562s-.698 1.562-1.562 1.562h-23.124c-.864 0-1.563-.699-1.563-1.562zm13.75-12.5c0 .863-.699 1.562-1.562 1.562h-23.125c-.863 0-1.562-.699-1.562-1.562s.699-1.562 1.562-1.562h23.125c.863-.001 1.562.698 1.562 1.562z" fill="#7c8087" transform=""/></svg>