<?xml version="1.0" encoding="UTF-8"?>
<svg width="20px" height="20px" viewBox="0 0 20 20" version="1.1" xmlns="http://www.w3.org/2000/svg" xmlns:xlink="http://www.w3.org/1999/xlink">
    <!-- Generator: sketchtool 49.2 (51160) - http://www.bohemiancoding.com/sketch -->
    <title>95D0608C-3D6E-42CB-A347-C4DC6CD49390</title>
    <desc>Created with sketchtool.</desc>
    <defs></defs>
    <g id="Stlyes" stroke="none" stroke-width="1" fill="none" fill-rule="evenodd">
        <g id="Styles_Desktop-01" transform="translate(-395.000000, -840.000000)" fill="#FFFFFF">
            <g id="Video-Controls" transform="translate(100.000000, 693.000000)">
                <g id="Fullscreen-/-Inactive" transform="translate(280.000000, 133.000000)">
                    <path d="M22.4583964,25.3993949 C22.7744759,25.082775 23.2872271,25.0816944 23.603847,25.3983142 C23.9204668,25.7149341 23.9204668,26.2276853 23.603847,26.5443052 L17.7723147,32.3774584 L22.371407,32.3774584 C22.8193214,32.3774584 23.1818673,32.7405446 23.1818673,33.1879187 C23.1818673,33.6352928 22.8193214,33.9983791 22.371407,33.9983791 L15.8104603,33.9983791 C15.7061811,33.9983791 15.6073049,33.9762265 15.5159931,33.9405662 C15.5073482,33.9373244 15.4997839,33.9297601 15.491139,33.925978 C15.4041496,33.8881565 15.3268857,33.836287 15.2593473,33.7719905 C15.2544845,33.7671277 15.2480009,33.7660471 15.2431381,33.7617247 C15.2328723,33.7514588 15.2301707,33.7390318 15.2209855,33.7276853 C15.1642533,33.6660903 15.1183272,33.5974714 15.0832073,33.5202075 C15.0734817,33.4991355 15.0659174,33.4786038 15.0583531,33.4564513 C15.0459261,33.4218716 15.0248541,33.3894532 15.0172898,33.352172 C15.007024,33.299222 15.0010806,33.2451913 15.0010806,33.188459 L15,26.6258915 C15,26.1785174 15.3625459,25.8154312 15.8104603,25.8154312 C16.2578344,25.8154312 16.6209207,26.1779771 16.6209207,26.6258915 L16.621461,31.2379512 L22.4583964,25.3993949 Z M34.9978388,14.8093797 L35,21.3730279 C35,21.820402 34.6374541,22.1834882 34.1895397,22.1834882 C33.7421656,22.1834882 33.3790793,21.820402 33.3790793,21.3730279 L33.3779987,16.7615085 L27.540523,22.5989842 C27.3822131,22.7572941 27.1747352,22.8361789 26.9672574,22.8361789 C26.7597796,22.8361789 26.5523017,22.7572941 26.3939918,22.5989842 C26.0773719,22.2829047 26.0773719,21.7696131 26.3939918,21.4529933 L32.2260644,15.6209207 L27.6269721,15.6209207 C27.179598,15.6209207 26.8165118,15.2583748 26.8165118,14.8104603 C26.8165118,14.3625459 27.179598,14 27.6269721,14 L34.1868381,14 C34.2873352,14 34.3797277,14.0226929 34.468338,14.0556516 C34.4850875,14.0621353 34.5007564,14.0718608 34.5175059,14.0794251 C34.5596499,14.0983359 34.603955,14.1129241 34.6406959,14.1383186 C34.6817592,14.1658742 34.7174195,14.2004539 34.7525394,14.2350335 C34.7536201,14.2361141 34.7547007,14.2361141 34.7557813,14.2371947 C34.7563216,14.237735 34.7563216,14.2382753 34.7568619,14.2388156 C34.8308839,14.3122974 34.8881565,14.4003674 34.9297601,14.4987033 C34.9319213,14.503566 34.9335423,14.5084288 34.9357035,14.5132915 C34.971904,14.605684 34.9978388,14.7040199 34.9978388,14.8093797 Z" id="icon-fullscreen"></path>
                </g>
            </g>
        </g>
    </g>
</svg>