<?xml version="1.0" encoding="UTF-8"?>
<svg width="50px" height="50px" viewBox="0 0 50 50" version="1.1" xmlns="http://www.w3.org/2000/svg" xmlns:xlink="http://www.w3.org/1999/xlink">
    <!-- Generator: sketchtool 49.2 (51160) - http://www.bohemiancoding.com/sketch -->
    <title>4E86D557-4C48-41D2-8A2C-88C19EAA122A</title>
    <desc>Created with sketchtool.</desc>
    <defs></defs>
    <g id="Stlyes" stroke="none" stroke-width="1" fill="none" fill-rule="evenodd">
        <g id="Styles_Desktop-01" transform="translate(-240.000000, -550.000000)" fill="#19C4AC">
            <g id="Icons" transform="translate(100.000000, 276.000000)">
                <g id="Icon-/-Information" transform="translate(140.000000, 274.000000)">
                    <path d="M25,0 C11.2130435,0 0,11.2130435 0,25 C0,38.7869565 11.2130435,50 25,50 C38.7847826,50 50,38.7869565 50,25 C50,11.2130435 38.7847826,0 25,0 L25,0 Z M23.9130435,8.69565217 C25.1108696,8.69565217 26.0869565,9.66956522 26.0869565,10.8695652 C26.0869565,12.0717391 25.1108696,13.0434783 23.9130435,13.0434783 C22.7108696,13.0434783 21.7391304,12.0717391 21.7391304,10.8695652 C21.7391304,9.66956522 22.7108696,8.69565217 23.9130435,8.69565217 L23.9130435,8.69565217 Z M31.5217391,39.1304348 L18.4782609,39.1304348 C17.8782609,39.1304348 17.3913043,38.6434783 17.3913043,38.0434783 C17.3913043,37.4434783 17.8782609,36.9565217 18.4782609,36.9565217 L23.9108696,36.9565217 L23.9108696,19.5652174 L20.6521739,19.5652174 C20.0521739,19.5652174 19.5652174,19.0782609 19.5652174,18.4782609 C19.5652174,17.8782609 20.0521739,17.3913043 20.6521739,17.3913043 L25,17.3913043 C25.5978261,17.3913043 26.0869565,17.8782609 26.0847826,18.4782609 L26.0847826,36.9565217 L31.5217391,36.9565217 C32.1195652,36.9565217 32.6086957,37.4434783 32.6086957,38.0434783 C32.6086957,38.6434783 32.1195652,39.1304348 31.5217391,39.1304348 L31.5217391,39.1304348 Z" id="icon-info"></path>
                </g>
            </g>
        </g>
    </g>
</svg>