<?xml version="1.0" encoding="UTF-8"?>
<svg width="50px" height="50px" viewBox="0 0 50 50" version="1.1" xmlns="http://www.w3.org/2000/svg" xmlns:xlink="http://www.w3.org/1999/xlink">
    <!-- Generator: sketchtool 49.2 (51160) - http://www.bohemiancoding.com/sketch -->
    <title>FF6C719C-04D8-4794-836F-8AB28AE30A54</title>
    <desc>Created with sketchtool.</desc>
    <defs></defs>
    <g id="Stlyes" stroke="none" stroke-width="1" fill="none" fill-rule="evenodd">
        <g id="Styles_Desktop-01" transform="translate(-170.000000, -550.000000)" fill="#ECA227">
            <g id="Icons" transform="translate(100.000000, 276.000000)">
                <g id="Icon-/-Caution" transform="translate(70.000000, 274.000000)">
                    <path d="M49.8836936,48.4245972 L25.9727523,0.553240564 C25.6032195,-0.184413521 24.3946301,-0.184413521 24.0272711,0.553240564 L0.116329809,48.4245972 C-0.244508033,49.1426675 0.277185232,50 1.08798352,50 L48.9098662,50 C49.7228382,50 50.2445314,49.1426675 49.8836936,48.4245972 L49.8836936,48.4245972 Z M23.9120639,17.6911862 C23.9142376,17.0906183 24.4011513,16.6032009 25.0010986,16.6032009 C25.5988721,16.6032009 26.0879595,17.0906183 26.0857858,17.6911862 L26.0857858,34.3417144 C26.0879595,34.9401064 25.5988721,35.4296998 25.0010986,35.4296998 C24.4011513,35.4296998 23.9142376,34.9401064 23.9120639,34.3417144 L23.9120639,17.6911862 L23.9120639,17.6911862 Z M25.0010986,43.7070926 C23.8511997,43.7070926 22.9208467,42.7757771 22.9208467,41.6268645 C22.9208467,40.4801279 23.8511997,39.5444605 25.0010986,39.5444605 C26.14665,39.5444605 27.0791767,40.4801279 27.0791767,41.6268645 C27.0791767,42.7779531 26.14665,43.7070926 25.0010986,43.7070926 L25.0010986,43.7070926 Z" id="icon-caution"></path>
                </g>
            </g>
        </g>
    </g>
</svg>