<?xml version="1.0" encoding="UTF-8"?>
<svg width="50px" height="50px" viewBox="0 0 50 50" version="1.1" xmlns="http://www.w3.org/2000/svg" xmlns:xlink="http://www.w3.org/1999/xlink">
    <!-- Generator: sketchtool 49.2 (51160) - http://www.bohemiancoding.com/sketch -->
    <title>E2E6D98D-1736-4CF8-BB6F-4FD1F4FC972F</title>
    <desc>Created with sketchtool.</desc>
    <defs></defs>
    <g id="Stlyes" stroke="none" stroke-width="1" fill="none" fill-rule="evenodd">
        <g id="Styles_Desktop-01" transform="translate(-240.000000, -409.000000)" fill="#7C8087" fill-rule="nonzero">
            <g id="Icons" transform="translate(100.000000, 276.000000)">
                <g id="Icon-/-Expand" transform="translate(140.000000, 133.000000)">
                    <path d="M32.5579671,23.076923 C34.0111866,23.076923 35.2596155,24.0914063 35.2596155,25.4524886 C35.2596155,26.813571 34.0111866,27.8280543 32.5579671,27.8280543 L7.93176967,27.8280543 L15.6937767,35.6097566 C16.5900356,36.5082898 16.5586579,37.9505534 15.6253121,38.8111523 C14.713617,39.651788 13.2799186,39.6229548 12.4045107,38.7453257 L0.652375545,26.9633705 C-0.222040744,26.0867355 -0.216740542,24.6864391 0.664092043,23.8161405 L12.4162272,12.2045507 C13.298062,11.3332619 14.7319251,11.3144623 15.6374196,12.1616305 C16.5644398,13.0289379 16.584899,14.4714001 15.6820602,15.3634417 L7.8752157,23.076923 L32.5579671,23.076923 Z M47.5641026,0 L47.6282051,0 C48.9381113,0 50,1.06188873 50,2.37179487 L50,47.628205 C50,48.9381112 48.9381113,49.9999999 47.6282051,49.9999999 L47.5641026,49.9999999 C46.2541964,49.9999999 45.1923077,48.9381112 45.1923077,47.628205 L45.1923077,2.37179487 C45.1923077,1.06188873 46.2541964,0 47.5641026,0 Z" id="icon-expand"></path>
                </g>
            </g>
        </g>
    </g>
</svg>