<?xml version="1.0" encoding="UTF-8"?>
<svg width="50px" height="50px" viewBox="0 0 50 50" version="1.1" xmlns="http://www.w3.org/2000/svg" xmlns:xlink="http://www.w3.org/1999/xlink">
    <!-- Generator: sketchtool 49.2 (51160) - http://www.bohemiancoding.com/sketch -->
    <title>4E03271C-E398-4565-8A8B-CD70EF23F0F8</title>
    <desc>Created with sketchtool.</desc>
    <defs></defs>
    <g id="Stlyes" stroke="none" stroke-width="1" fill="none" fill-rule="evenodd">
        <g id="Styles_Desktop-01" transform="translate(-100.000000, -410.000000)" fill="#7C8087">
            <g id="Icons" transform="translate(100.000000, 276.000000)">
                <g id="Icon-/-Close" transform="translate(0.000000, 134.000000)">
                    <path d="M21.8195835,25 L0.662227061,3.84264356 C-0.216990086,2.96342642 -0.223898907,1.54484259 0.660471841,0.660471841 C1.53871961,-0.217775925 2.95758716,-0.222829344 3.84264356,0.662227061 L25,21.8195835 L46.1573564,0.662227061 C47.0365736,-0.216990086 48.4551574,-0.223898907 49.3395282,0.660471841 C50.2177759,1.53871961 50.2228293,2.95758716 49.3377729,3.84264356 L28.1804165,25 L49.3377729,46.1573564 C50.2169901,47.0365736 50.2238989,48.4551574 49.3395282,49.3395282 C48.4612804,50.2177759 47.0424128,50.2228293 46.1573564,49.3377729 L25,28.1804165 L3.84264356,49.3377729 C2.96342642,50.2169901 1.54484259,50.2238989 0.660471841,49.3395282 C-0.217775925,48.4612804 -0.222829344,47.0424128 0.662227061,46.1573564 L21.8195835,25 Z" id="icon-close"></path>
                </g>
            </g>
        </g>
    </g>
</svg>