<?xml version="1.0" encoding="UTF-8"?>
<svg width="20px" height="20px" viewBox="0 0 20 20" version="1.1" xmlns="http://www.w3.org/2000/svg" xmlns:xlink="http://www.w3.org/1999/xlink">
    <!-- Generator: sketchtool 49.2 (51160) - http://www.bohemiancoding.com/sketch -->
    <title>1998C2F6-73E2-4CF1-83CD-1D49BFEE36A6</title>
    <desc>Created with sketchtool.</desc>
    <defs></defs>
    <g id="Stlyes" stroke="none" stroke-width="1" fill="none" fill-rule="evenodd">
        <g id="Styles_Desktop-01" transform="translate(-395.000000, -771.000000)" fill="#FFFFFF">
            <g id="Video-Controls" transform="translate(100.000000, 693.000000)">
                <g id="Fullscreen-/-Active" transform="translate(280.000000, 63.000000)">
                    <path d="M16.3829155,34.7603732 C16.066836,35.076993 15.5540847,35.0780737 15.2374649,34.7614538 C14.920845,34.444834 14.920845,33.9320827 15.2374649,33.6154629 L21.0689972,27.7823097 L16.4699049,27.7823097 C16.0219905,27.7823097 15.6594446,27.4192234 15.6594446,26.9718493 C15.6594446,26.5244752 16.0219905,26.161389 16.4699049,26.161389 L23.0308515,26.161389 C23.1351308,26.161389 23.2340069,26.1835416 23.3253188,26.2192018 C23.3339637,26.2224437 23.341528,26.230008 23.3501729,26.2337901 C23.4371623,26.2716116 23.5144262,26.323481 23.5819646,26.3877776 C23.5868273,26.3926403 23.593311,26.3937209 23.5981738,26.3980434 C23.6084396,26.4083092 23.6111411,26.4207363 23.6203263,26.4320827 C23.6770586,26.4936777 23.7229847,26.5622967 23.7581046,26.6395606 C23.7678301,26.6606325 23.7753944,26.6811642 23.7829587,26.7033168 C23.7953858,26.7378964 23.8164577,26.7703148 23.824022,26.807596 C23.8342879,26.8605461 23.8402313,26.9145768 23.8402313,26.971309 L23.8413119,33.5338766 C23.8413119,33.9812507 23.4787659,34.3443369 23.0308515,34.3443369 C22.5834774,34.3443369 22.2203912,33.981791 22.2203912,33.5338766 L22.2198509,28.9218169 L16.3829155,34.7603732 Z M26.1586881,23.0267992 L26.1565269,16.4631511 C26.1565269,16.015777 26.5190728,15.6526907 26.9669872,15.6526907 C27.4143614,15.6526907 27.7774476,16.015777 27.7774476,16.4631511 L27.7785282,21.0746704 L33.6160039,15.2371947 C33.7743138,15.0788848 33.9817917,15 34.1892695,15 C34.3967474,15 34.6042252,15.0788848 34.7625351,15.2371947 C35.079155,15.5532743 35.079155,16.0665658 34.7625351,16.3831856 L28.9304625,22.2152583 L33.5295548,22.2152583 C33.9769289,22.2152583 34.3400151,22.5778042 34.3400151,23.0257186 C34.3400151,23.473633 33.9769289,23.8361789 33.5295548,23.8361789 L26.9696888,23.8361789 C26.8691917,23.8361789 26.7767992,23.8134861 26.6881889,23.7805273 C26.6714394,23.7740437 26.6557705,23.7643181 26.639021,23.7567538 C26.596877,23.7378431 26.5525719,23.7232548 26.515831,23.6978604 C26.4747677,23.6703047 26.4391074,23.6357251 26.4039875,23.6011455 C26.4029069,23.6000648 26.4018262,23.6000648 26.4007456,23.5989842 C26.4002053,23.5984439 26.4002053,23.5979036 26.399665,23.5973633 C26.325643,23.5238816 26.2683704,23.4358115 26.2267668,23.3374757 C26.2246056,23.3326129 26.2229847,23.3277502 26.2208234,23.3228874 C26.1846229,23.2304949 26.1586881,23.1321591 26.1586881,23.0267992 Z" id="icon-nofullscreen"></path>
                </g>
            </g>
        </g>
    </g>
</svg>