<?xml version="1.0" encoding="UTF-8"?>
<svg width="50px" height="50px" viewBox="0 0 50 50" version="1.1" xmlns="http://www.w3.org/2000/svg" xmlns:xlink="http://www.w3.org/1999/xlink">
    <!-- Generator: sketchtool 49.2 (51160) - http://www.bohemiancoding.com/sketch -->
    <title>3AEE2C21-FDF0-4CB4-A736-DF733D48159B</title>
    <desc>Created with sketchtool.</desc>
    <defs></defs>
    <g id="Stlyes" stroke="none" stroke-width="1" fill="none" fill-rule="evenodd">
        <g id="Styles_Desktop-01" transform="translate(-100.000000, -480.000000)" fill="#B4B8BE" fill-rule="nonzero">
            <g id="Icons" transform="translate(100.000000, 276.000000)">
                <g id="Icon-/-Tooltip" transform="translate(0.000000, 204.000000)">
                    <path d="M25,50 C11.1928813,50 0,38.8071187 0,25 C0,11.1928813 11.1928813,0 25,0 C38.8071187,0 50,11.1928813 50,25 C50,38.8071187 38.8071187,50 25,50 Z M25,46.3645943 C36.7993396,46.3645943 46.3645943,36.7993396 46.3645943,25 C46.3645943,13.2006604 36.7993396,3.63540569 25,3.63540569 C13.2006604,3.63540569 3.63540569,13.2006604 3.63540569,25 C3.63540569,36.7993396 13.2006604,46.3645943 25,46.3645943 Z M27.8714436,37.6448894 C27.8714436,39.2304438 26.5855545,40.516333 25,40.516333 C23.4144455,40.516333 22.1285564,39.2304438 22.1285564,37.6448894 C22.1285564,36.0593349 23.4144455,34.7734457 25,34.7734457 C26.5855545,34.7734457 27.8714436,36.0593349 27.8714436,37.6448894 Z M26.8177028,32.3761855 L23.1822972,32.3761855 L23.1822972,24.2360379 L25,24.2360379 C27.4877434,24.2360379 29.5047418,22.2199681 29.5047418,19.7312961 C29.5047418,17.2451962 27.4860999,15.2265543 25,15.2265543 C22.512614,15.2265543 20.4952582,17.2443746 20.4952582,19.7312961 L16.8598525,19.7312961 C16.8598525,15.2367829 20.5046475,11.5911486 25,11.5911486 C29.493879,11.5911486 33.1401475,15.2374171 33.1401475,19.7312961 C33.1401475,23.60306 30.4380373,26.8421042 26.8177028,27.6677561 L26.8177028,32.3761855 Z" id="icon-tooltip"></path>
                </g>
            </g>
        </g>
    </g>
</svg>