<?xml version="1.0" encoding="UTF-8"?>
<svg width="26px" height="19px" viewBox="0 0 26 19" version="1.1" xmlns="http://www.w3.org/2000/svg" xmlns:xlink="http://www.w3.org/1999/xlink">
    <!-- Generator: sketchtool 49.2 (51160) - http://www.bohemiancoding.com/sketch -->
    <title>AFB8DCE7-A472-40F5-81DC-18838F9B2745</title>
    <desc>Created with sketchtool.</desc>
    <defs></defs>
    <g id="Stlyes" stroke="none" stroke-width="1" fill="none" fill-rule="evenodd">
        <g id="Styles_Desktop-01" transform="translate(-672.000000, -772.000000)" fill="#FFFFFF">
            <g id="Video-Controls" transform="translate(100.000000, 693.000000)">
                <g id="Hang-Up-/-Active" transform="translate(560.000000, 63.000000)">
                    <path d="M28.7410717,29.4957211 C29.0728258,29.2807904 29.517479,29.3746716 29.7333154,29.7061239 C29.8377621,29.8667182 29.8733826,30.0581032 29.8338378,30.2452621 C29.793991,30.4327228 29.6838088,30.5933171 29.5232145,30.6977638 L25.4627735,34.1574853 C25.3281399,34.2718937 25.1630176,34.3292488 24.9984989,34.3292488 C24.8333765,34.3292488 24.668556,34.2718937 24.5342243,34.1577871 L20.4647273,30.6890096 C20.4221637,30.6624451 20.3729591,30.6201834 20.3297918,30.5712807 C20.2030068,30.427591 20.1399161,30.2434508 20.151689,30.0523677 C20.1637638,29.8609827 20.2494946,29.6862005 20.3928824,29.5594155 C20.5365721,29.4323286 20.718901,29.3695399 20.9120972,29.3813128 C21.1031804,29.3930857 21.2782644,29.4788165 21.4050494,29.6225062 L24.2827673,32.0498354 L24.2827673,24.5655954 C24.2827673,24.1701469 24.6045598,23.8486563 24.9997064,23.8486563 C25.3951549,23.8486563 25.7166454,24.1701469 25.7166454,24.5655954 L25.7166454,32.0610045 L28.60674,29.6110351 C28.6372287,29.5739052 28.6867353,29.5313417 28.7410717,29.4957211 Z M33.8517152,17.5177977 C36.526577,18.623846 38,20.2002063 38,21.9573862 L38,24.0342454 C37.9996981,24.2337809 37.9731337,24.4321089 37.921514,24.6240976 C37.7636365,25.2091199 37.3875076,25.6978459 36.8619536,26.0000169 C36.3363995,26.3018859 35.7254165,26.3815794 35.1403942,26.2234 L29.6222275,24.7382041 C28.6357194,24.47105 27.9459486,23.5708764 27.9444392,22.5490496 L27.9444392,21.1695079 C25.9916482,20.9639351 24.0083683,20.9639351 22.0534642,21.1704135 L22.0552754,22.5490496 C22.0534642,23.5708764 21.3636934,24.47105 20.3774871,24.7382041 L14.8593204,26.2234 C14.664313,26.2762271 14.46357,26.3027916 14.2625252,26.3027916 C13.76746,26.3018859 13.2799414,26.1346505 12.8890209,25.8324795 C12.3299594,25.4074479 11.9972997,24.733978 12.0000165,24.0309249 L12.0000165,21.9513488 C12.0286941,20.9597089 12.4658005,20.0127456 13.1993424,19.3498411 C14.0575561,18.5486806 15.0513091,17.9313583 16.15132,17.5165902 C18.549368,16.5391382 21.6927307,16 24.9997064,16 C28.306984,16 31.4503467,16.5391382 33.8511114,17.5177977 L33.8517152,17.5177977 Z M28.0999018,19.7437803 C28.8298212,19.82287 29.3792229,20.4356642 29.3783173,21.1698098 L29.3783173,22.5611244 C29.3819398,22.9324233 29.6358117,23.2602531 29.9950359,23.357455 L35.5132026,24.8366135 C35.7628483,24.9057415 36.0336248,24.8520088 36.2385939,24.6935275 L36.3025902,24.644021 C36.4674107,24.484936 36.561292,24.261251 36.5570658,24.030623 L36.5570658,21.9483301 C36.5570658,20.823566 35.3722297,19.6909532 33.3065396,18.8411917 C31.0890094,17.9337733 28.1388429,17.4338781 24.9997064,17.4338781 C21.871739,17.4338781 18.92278,17.9379995 16.6961937,18.8532665 C15.7694557,19.198001 14.9338821,19.7105747 14.2090944,20.3774035 C13.7436123,20.7776819 13.4577423,21.3548555 13.421518,21.9640273 L13.421518,24.0463202 C13.4221217,24.1214856 13.432989,24.196651 13.4535161,24.2687977 C13.5147955,24.4834266 13.6554665,24.6612275 13.8501721,24.7695985 C14.0451795,24.8782714 14.2706757,24.904534 14.4850027,24.8429527 L20.0043769,23.3453802 C20.363903,23.2481784 20.617473,22.9203486 20.6213973,22.5478421 L20.6213973,21.1695079 C20.6189824,20.4344567 21.1686859,19.8213606 21.8998128,19.7437803 C23.9570506,19.5264345 26.0432678,19.5264345 28.0999018,19.7437803 Z" id="icon-hangup"></path>
                </g>
            </g>
        </g>
    </g>
</svg>