<?xml version="1.0" encoding="UTF-8"?>
<svg width="26px" height="18px" viewBox="0 0 26 18" version="1.1" xmlns="http://www.w3.org/2000/svg" xmlns:xlink="http://www.w3.org/1999/xlink">
    <!-- Generator: sketchtool 49.2 (51160) - http://www.bohemiancoding.com/sketch -->
    <title>Hide Thumbnail</title>
    <desc>Created with sketchtool.</desc>
    <defs></defs>
    <g id="Stlyes" stroke="none" stroke-width="1" fill="none" fill-rule="evenodd">
        <g id="Styles_Desktop-01" transform="translate(-532.000000, -842.000000)" fill="#FFFFFF">
            <g id="Video-Controls" transform="translate(100.000000, 693.000000)">
                <g id="Hide-/-Inactive" transform="translate(420.000000, 133.000000)">
                    <path d="M37.9378545,24.358 C38.0218545,24.566 38.0218545,24.799 37.9378545,25.006 C37.9048545,25.086 34.5718545,32.962 25.0008545,32.962 C22.6838545,32.962 20.7398545,32.496 19.1118545,31.795 L20.8958545,30.643 C22.0878545,31.016 23.4438545,31.253 25.0008545,31.253 C32.3738545,31.253 35.5088545,26.038 36.2018545,24.679 C35.9408545,24.157 35.3428545,23.1 34.3048545,21.984 L35.7298545,21.064 C37.2698545,22.781 37.9228545,24.323 37.9378545,24.358 Z M29.4105545,25.148 C29.1735545,27.385 27.2995545,29.139 25.0005545,29.139 C24.5115545,29.139 24.0495545,29.041 23.6085545,28.895 L29.4105545,25.148 Z M37.8949545,16.356 C38.1169545,16.727 37.9789545,17.233 37.5899545,17.485 L13.2159545,33.225 C13.0749545,33.317 12.9169545,33.363 12.7669545,33.364 C12.7599545,33.365 12.7549545,33.365 12.7499545,33.365 C12.4919545,33.365 12.2469545,33.241 12.1069545,33.009 C11.8839545,32.638 12.0209545,32.132 12.4129545,31.88 L36.7839545,16.14 C36.9309545,16.045 37.0929545,16 37.2499545,16 C37.5099545,16 37.7549545,16.125 37.8949545,16.356 Z M20.5902545,24.2174 C20.8262545,21.9804 22.7022545,20.2254 25.0002545,20.2254 C25.4892545,20.2254 25.9522545,20.3234 26.3932545,20.4694 L20.5902545,24.2174 Z M14.2679545,28.2974 C12.7309545,26.5814 12.0789545,25.0414 12.0639545,25.0064 C11.9789545,24.7994 11.9789545,24.5664 12.0639545,24.3594 C12.0969545,24.2784 15.4289545,16.4014 24.9999545,16.4014 C27.3149545,16.4014 29.2559545,16.8674 30.8819545,17.5674 L29.0989545,18.7184 C27.9079545,18.3484 26.5539545,18.1124 24.9999545,18.1124 C17.6279545,18.1134 14.4919545,23.3264 13.8009545,24.6864 C14.0599545,25.2064 14.6559545,26.2614 15.6929545,27.3774 L14.2679545,28.2974 Z" id="icon-hide"></path>
                </g>
            </g>
        </g>
    </g>
</svg>
