<?xml version="1.0" encoding="UTF-8"?>
<svg width="26px" height="20px" viewBox="0 0 26 20" version="1.1" xmlns="http://www.w3.org/2000/svg" xmlns:xlink="http://www.w3.org/1999/xlink">
    <!-- Generator: sketchtool 49.2 (51160) - http://www.bohemiancoding.com/sketch -->
    <title>1D9AEC0B-3149-4CA2-9439-EE959AEFE657</title>
    <desc>Created with sketchtool.</desc>
    <defs></defs>
    <g id="Stlyes" stroke="none" stroke-width="1" fill="none" fill-rule="evenodd">
        <g id="Styles_Desktop-01" transform="translate(-252.000000, -771.000000)" fill="#FFFFFF">
            <g id="Video-Controls" transform="translate(100.000000, 693.000000)">
                <g id="Audio-Alt-/-Active" transform="translate(140.000000, 63.000000)">
                    <path d="M30.745469,19.0046566 C32.2015204,20.4611142 33.1073567,22.4678885 33.1242161,24.6863698 C33.1073567,26.9049019 32.2015204,28.9116761 30.745469,30.3681337 L30.7411019,30.3641728 C30.5935823,30.5112861 30.3916252,30.6025909 30.1667149,30.6025909 C29.7187733,30.6025909 29.3545701,30.2383368 29.3545701,29.7904968 C29.3545701,29.5540084 29.4573514,29.343774 29.6184295,29.1949341 C30.7671019,28.0337188 31.4821529,26.444265 31.4989107,24.6863698 C31.4821529,22.9285254 30.7671019,21.3390716 29.6184295,20.1778055 C29.4573514,20.0290164 29.3545701,19.818782 29.3545701,19.5822936 C29.3545701,19.1344028 29.7187733,18.7701995 30.1667149,18.7701995 C30.3916252,18.7701995 30.5935823,18.8614535 30.7411019,19.0086176 L30.745469,19.0046566 Z M38,24.6494366 C38,24.6661436 37.9993398,24.6826983 37.9992891,24.6993546 C37.9993398,24.7160616 38,24.7326163 38,24.7492726 C38,28.3396099 36.5444057,31.5896112 34.1922173,33.9422058 L34.1870376,33.9367215 C34.0394672,34.0890653 33.8351234,34.1826551 33.6070139,34.1826551 C33.1583106,34.1826551 32.7953261,33.8185027 32.7953261,33.3701548 C32.7953261,33.1289438 32.9020683,32.9155101 33.0671074,32.7671273 C35.1110028,30.7111968 36.3749994,27.878516 36.3749994,24.7492726 C36.3749994,24.7326163 36.3743392,24.7160616 36.3742376,24.6993546 C36.3743392,24.6826983 36.3749994,24.6661436 36.3749994,24.6494366 C36.3749994,21.5201932 35.1110028,18.6875124 33.0671074,16.6315819 C32.9020683,16.483199 32.7953261,16.2697653 32.7953261,16.0285543 C32.7953261,15.5802573 33.1583106,15.216054 33.6070139,15.216054 C33.8351234,15.216054 34.0394672,15.3096947 34.1870376,15.4620385 L34.1922173,15.4565033 C36.5444057,17.8091488 38,21.05915 38,24.6494366 Z M24.1875048,15 C25.5332084,15 26.6245995,16.0913911 26.6245995,17.4371455 L26.6245995,31.9356551 C26.6245995,33.2814095 25.5332084,34.3727498 24.1875048,34.3727498 C24.01495,34.3727498 23.8463054,34.3541638 23.6832468,34.3196325 C23.0207035,34.216902 22.3847189,33.9185621 21.8737578,33.4091752 L17.962432,29.4985604 L15.2500013,29.4985604 C13.4544263,29.4985604 12,28.042966 12,26.2485591 L12,23.1242415 C12,21.3298345 13.4544263,19.8742402 15.2500013,19.8742402 L17.962432,19.8742402 L21.8737578,15.9636254 C22.3847189,15.4542385 23.0207035,15.1558985 23.6832468,15.0531172 C23.8463054,15.0186367 24.01495,15 24.1875048,15 Z M24.9995988,31.9356551 L24.9995988,17.4371455 C24.9995988,16.9880359 24.6366143,16.6250006 24.1875048,16.6250006 C24.1038172,16.6250006 24.0252586,16.6416569 23.9490867,16.6646608 C23.6162155,16.7106686 23.2948716,16.8562585 23.0385785,17.1125516 L18.6519401,21.4992408 L15.2500013,21.4992408 C14.3521884,21.4992408 13.6250006,22.2276474 13.6250006,23.1242415 L13.6250006,26.2485591 C13.6250006,27.1451532 14.3521884,27.8735597 15.2500013,27.8735597 L18.6519401,27.8735597 L23.0385785,32.2602489 C23.2948716,32.5164912 23.6162155,32.6621319 23.9490867,32.7081397 C24.0252586,32.7310929 24.1038172,32.7477491 24.1875048,32.7477491 C24.6366143,32.7477491 24.9995988,32.3847646 24.9995988,31.9356551 Z" id="icon-sound"></path>
                </g>
            </g>
        </g>
    </g>
</svg>