<?xml version="1.0" encoding="UTF-8"?>
<svg width="26px" height="20px" viewBox="0 0 26 20" version="1.1" xmlns="http://www.w3.org/2000/svg" xmlns:xlink="http://www.w3.org/1999/xlink">
    <!-- Generator: sketchtool 49.2 (51160) - http://www.bohemiancoding.com/sketch -->
    <title>E2644688-0F58-468D-9DB4-08EE0F32D550</title>
    <desc>Created with sketchtool.</desc>
    <defs></defs>
    <g id="Stlyes" stroke="none" stroke-width="1" fill="none" fill-rule="evenodd">
        <g id="Styles_Desktop-01" transform="translate(-252.000000, -841.000000)" fill="#FFFFFF">
            <g id="Video-Controls" transform="translate(100.000000, 693.000000)">
                <g id="Audio-Alt-/-Inactive" transform="translate(140.000000, 133.000000)">
                    <path d="M37.2724889,20.3886 C37.7364889,21.7246 38.0014889,23.1546 38.0014889,24.6496 C38.0014889,24.6656 38.0004889,24.6826 38.0004889,24.6996 C38.0004889,24.7156 38.0014889,24.7326 38.0014889,24.7486 C38.0014889,28.3396 36.5454889,31.5896 34.1934889,33.9426 L34.1884889,33.9366 C34.0404889,34.0886 33.8354889,34.1826 33.6084889,34.1826 C33.1594889,34.1826 32.7954889,33.8186 32.7954889,33.3696 C32.7954889,33.1286 32.9034889,32.9156 33.0684889,32.7676 C35.1124889,30.7106 36.3764889,27.8786 36.3764889,24.7486 C36.3764889,24.7326 36.3754889,24.7156 36.3754889,24.6996 C36.3754889,24.6826 36.3764889,24.6656 36.3764889,24.6496 C36.3764889,23.4806 36.1994889,22.3536 35.8724889,21.2926 L37.2724889,20.3886 Z M32.9677889,23.1689 C33.0647889,23.6609 33.1207889,24.1669 33.1247889,24.6869 C33.1087889,26.9049 32.2017889,28.9119 30.7457889,30.3679 L30.7417889,30.3639 C30.5947889,30.5119 30.3927889,30.6029 30.1677889,30.6029 C29.7197889,30.6029 29.3557889,30.2379 29.3557889,29.7899 C29.3557889,29.5539 29.4577889,29.3439 29.6187889,29.1949 C30.7687889,28.0329 31.4837889,26.4439 31.4997889,24.6869 C31.4977889,24.5009 31.4847889,24.3189 31.4677889,24.1379 L32.9677889,23.1689 Z M25.0004889,28.3134 L26.6254889,27.2644 L26.6254889,31.9354 C26.6254889,33.2814 25.5344889,34.3734 24.1884889,34.3734 C24.0164889,34.3734 23.8474889,34.3544 23.6844889,34.3194 C23.0214889,34.2164 22.3854889,33.9184 21.8754889,33.4094 L20.0044889,31.5404 L21.4114889,30.6314 L23.0394889,32.2594 C23.2954889,32.5164 23.6174889,32.6624 23.9504889,32.7084 C24.0264889,32.7314 24.1044889,32.7484 24.1884889,32.7484 C24.6374889,32.7484 25.0004889,32.3844 25.0004889,31.9354 L25.0004889,28.3134 Z M37.2499889,16.3178 C37.5099889,16.3178 37.7549889,16.4428 37.8949889,16.6738 C38.1159889,17.0448 37.9789889,17.5508 37.5899889,17.8028 L13.2159889,33.5428 C13.0739889,33.6348 12.9169889,33.6808 12.7659889,33.6818 C12.7599889,33.6828 12.7549889,33.6828 12.7499889,33.6828 C12.4909889,33.6828 12.2459889,33.5588 12.1069889,33.3268 C11.8839889,32.9558 12.0209889,32.4498 12.4119889,32.1978 L36.7829889,16.4578 C36.9309889,16.3628 37.0929889,16.3178 37.2499889,16.3178 Z M34.3612889,15.6416 L32.9902889,16.5266 C32.8782889,16.3886 32.7962889,16.2226 32.7962889,16.0286 C32.7962889,15.5796 33.1592889,15.2156 33.6082889,15.2156 C33.8362889,15.2156 34.0402889,15.3096 34.1882889,15.4616 L34.1932889,15.4566 C34.2522889,15.5156 34.3032889,15.5816 34.3612889,15.6416 Z M13.6132889,29.041 C12.6532889,28.477 12.0012889,27.443 12.0012889,26.248 L12.0012889,23.124 C12.0012889,21.33 13.4552889,19.874 15.2512889,19.874 L17.9632889,19.874 L21.8752889,15.964 C22.3852889,15.454 23.0212889,15.156 23.6842889,15.053 C23.8472889,15.019 24.0162889,15 24.1882889,15 C25.5342889,15 26.6262889,16.091 26.6262889,17.437 L26.6262889,20.638 L25.0002889,21.687 L25.0002889,17.437 C25.0002889,16.988 24.6372889,16.625 24.1882889,16.625 C24.1052889,16.625 24.0262889,16.642 23.9502889,16.665 C23.6172889,16.711 23.2962889,16.856 23.0392889,17.112 L18.6532889,21.499 L15.2512889,21.499 C14.3532889,21.499 13.6262889,22.228 13.6262889,23.124 L13.6262889,26.248 C13.6262889,27.145 14.3532889,27.873 15.2512889,27.873 L15.4212889,27.873 L13.6132889,29.041 Z" id="icon-nosound"></path>
                </g>
            </g>
        </g>
    </g>
</svg>