<?xml version="1.0" encoding="UTF-8"?>
<svg width="26px" height="17px" viewBox="0 0 26 17" version="1.1" xmlns="http://www.w3.org/2000/svg" xmlns:xlink="http://www.w3.org/1999/xlink">
    <!-- Generator: sketchtool 49.2 (51160) - http://www.bohemiancoding.com/sketch -->
    <title>Show Thumbnail</title>
    <desc>Created with sketchtool.</desc>
    <defs></defs>
    <g id="Stlyes" stroke="none" stroke-width="1" fill="none" fill-rule="evenodd">
        <g id="Styles_Desktop-01" transform="translate(-532.000000, -773.000000)" fill="#FFFFFF">
            <g id="Video-Controls" transform="translate(100.000000, 693.000000)">
                <g id="Show-/-Active" transform="translate(420.000000, 63.000000)">
                    <path d="M24.9995,33.5606815 C15.4276841,33.5606815 12.0957482,25.684833 12.0637488,25.6058345 C11.9787504,25.3978385 11.9787504,25.164843 12.0637488,24.957847 C12.0957482,24.8778485 15.4276841,17 24.9995,17 C34.570316,17 37.9032519,24.8768485 37.9362512,24.956847 C38.0212496,25.163843 38.0212496,25.3978385 37.9362512,25.6048345 C37.9032519,25.684833 34.570316,33.5606815 24.9995,33.5606815 Z M13.7997154,25.2848407 C14.4887021,26.669814 17.5686429,31.8507144 24.9995,31.8507144 C32.3723582,31.8507144 35.5082979,26.6368147 36.1992846,25.2778408 C35.5082979,23.8898675 32.4283571,18.7119671 24.9995,18.7119671 C17.6266418,18.7119671 14.4907021,23.9258668 13.7997154,25.2848407 Z M24.9997,29.737755 C22.5417473,29.737755 20.5427857,27.7387935 20.5427857,25.2808408 C20.5427857,22.823888 22.5417473,20.8239265 24.9997,20.8239265 C27.4576527,20.8239265 29.4566143,22.823888 29.4566143,25.2808408 C29.4566143,27.7387935 27.4576527,29.737755 24.9997,29.737755 Z M24.9997,22.5358935 C23.4857291,22.5358935 22.2547528,23.7668699 22.2547528,25.2808408 C22.2547528,26.7958116 23.4857291,28.0267879 24.9997,28.0267879 C26.5136709,28.0267879 27.7456472,26.7958116 27.7456472,25.2808408 C27.7456472,23.7668699 26.5136709,22.5358935 24.9997,22.5358935 Z" id="icon-show"></path>
                </g>
            </g>
        </g>
    </g>
</svg>
