<?xml version="1.0" encoding="UTF-8"?>
<svg width="26px" height="22px" viewBox="0 0 26 22" version="1.1" xmlns="http://www.w3.org/2000/svg" xmlns:xlink="http://www.w3.org/1999/xlink">
    <!-- Generator: sketchtool 49.2 (51160) - http://www.bohemiancoding.com/sketch -->
    <title>4566ECF7-50F7-46FF-BA62-86290C19756B</title>
    <desc>Created with sketchtool.</desc>
    <defs></defs>
    <g id="Stlyes" stroke="none" stroke-width="1" fill="none" fill-rule="evenodd">
        <g id="Styles_Desktop-01" transform="translate(-322.000000, -771.000000)" fill="#FFFFFF">
            <g id="Video-Controls" transform="translate(100.000000, 693.000000)">
                <g id="Screenshare/Active" transform="translate(210.000000, 63.000000)">
                    <path d="M13.6681177,15 L36.111883,15 C37.0317308,15 37.7800007,15.7483667 37.7800007,16.6683333 L37.7800007,30.8816667 C37.7800007,31.8016333 37.0317308,32.55 36.111883,32.55 L25.6482357,32.55 L25.6482357,34.6333333 L29.4420119,34.6333333 C29.7388069,34.6333333 29.9810089,34.8751333 29.9810089,35.1724 L29.9810089,35.6109333 C29.9810089,35.9077667 29.7388069,36.15 29.4420119,36.15 L20.3379888,36.15 C20.0407606,36.15 19.7989918,35.9077667 19.7989918,35.6109333 L19.7989918,35.1724 C19.7989918,34.8751333 20.0407606,34.6333333 20.3379888,34.6333333 L24.131765,34.6333333 L24.131765,32.55 L13.6681177,32.55 C12.7482699,32.55 12,31.8016333 12,30.8816667 L12,16.6683333 C12,15.7483667 12.7482699,15 13.6681177,15 Z M13.5164706,16.6683333 L13.5164706,30.8816667 C13.5164706,30.9627 13.5875281,31.0333333 13.6681177,31.0333333 L36.111883,31.0333333 C36.1929059,31.0333333 36.2635301,30.9627 36.2635301,30.8816667 L36.2635301,16.6683333 C36.2635301,16.5873 36.1929059,16.5166667 36.111883,16.5166667 L13.6681177,16.5166667 C13.5875281,16.5166667 13.5164706,16.5873 13.5164706,16.6683333 Z M22.9016907,28.00013 C21.9077525,28.00013 21.0988238,27.21103 21.0988238,26.24123 L21.0988238,21.61193 C21.0988238,20.64213 21.9077525,19.8534633 22.9016907,19.8534633 C23.1971858,19.8534633 23.4922477,19.9262633 23.7548138,20.0640633 L28.2483329,22.42183 C28.8098603,22.7160633 29.1586485,23.29283 29.1586485,23.9267967 C29.1586485,24.56033 28.8098603,25.1370967 28.2483329,25.43133 L23.7548138,27.7890967 C23.492681,27.9268967 23.1976191,28.00013 22.9016907,28.00013 Z M22.6152944,26.24123 C22.6152944,26.4474967 22.8800268,26.53503 23.0503048,26.44663 L27.5438239,24.0888633 C27.6062159,24.0563633 27.6421779,23.9969967 27.6421779,23.9267967 C27.6421779,23.8565967 27.6062159,23.79723 27.5438239,23.7642967 L23.0503048,21.40653 C23.0039442,21.3822633 22.953684,21.37013 22.9016907,21.37013 C22.7639085,21.37013 22.6152944,21.46243 22.6152944,21.61193 L22.6152944,26.24123 Z" id="icon-screen"></path>
                </g>
            </g>
        </g>
    </g>
</svg>