<?xml version="1.0" encoding="UTF-8"?>
<svg width="50px" height="50px" viewBox="0 0 50 50" version="1.1" xmlns="http://www.w3.org/2000/svg" xmlns:xlink="http://www.w3.org/1999/xlink">
    <!-- Generator: sketchtool 49.2 (51160) - http://www.bohemiancoding.com/sketch -->
    <title>0F7874D4-8B11-4C80-955B-F6F2B280423C</title>
    <desc>Created with sketchtool.</desc>
    <defs></defs>
    <g id="Stlyes" stroke="none" stroke-width="1" fill="none" fill-rule="evenodd">
        <g id="Styles_Desktop-01" transform="translate(-240.000000, -480.000000)" fill="#19C4AC" fill-rule="nonzero">
            <g id="Icons" transform="translate(100.000000, 276.000000)">
                <g id="Icon-/-Status-/-Okay" transform="translate(140.000000, 204.000000)">
                    <path d="M25,50 C11.1928813,50 0,38.8071187 0,25 C0,11.1928813 11.1928813,0 25,0 C38.8071187,0 50,11.1928813 50,25 C50,38.8071187 38.8071187,50 25,50 Z M25,45.8333333 C36.5059323,45.8333333 45.8333333,36.5059323 45.8333333,25 C45.8333333,13.4940677 36.5059323,4.16666667 25,4.16666667 C13.4940677,4.16666667 4.16666667,13.4940677 4.16666667,25 C4.16666667,36.5059323 13.4940677,45.8333333 25,45.8333333 Z M36.0268609,15.1935275 L38.9731391,18.1398058 L20.8333333,36.2796116 L11.0268609,26.4731391 L13.9731391,23.5268609 L20.8333333,30.3870551 L36.0268609,15.1935275 Z" id="icon-check"></path>
                </g>
            </g>
        </g>
    </g>
</svg>