<?xml version="1.0" encoding="UTF-8"?>
<svg width="19px" height="19px" viewBox="0 0 19 19" version="1.1" xmlns="http://www.w3.org/2000/svg" xmlns:xlink="http://www.w3.org/1999/xlink">
    <!-- Generator: sketchtool 49.2 (51160) - http://www.bohemiancoding.com/sketch -->
    <title>D0E1FABD-381B-4D48-B5FE-3F58AA969E86</title>
    <desc>Created with sketchtool.</desc>
    <defs></defs>
    <g id="Stlyes" stroke="none" stroke-width="1" fill="none" fill-rule="evenodd">
        <g id="Styles_Desktop-01" transform="translate(-466.000000, -772.000000)" fill="#FFFFFF" fill-rule="nonzero">
            <g id="Video-Controls" transform="translate(100.000000, 693.000000)">
                <g id="Popout-/-Active" transform="translate(350.000000, 63.000000)">
                    <path d="M33,27.9104715 C33,27.4145073 33.380558,27.0124489 33.85,27.0124489 C34.319442,27.0124489 34.7,27.4145073 34.7,27.9104715 L34.7,33.9519781 C34.7,34.4479423 34.319442,34.8500008 33.85,34.8500008 L16.85,34.8500008 C16.380558,34.8500008 16,34.4479423 16,33.9519781 L16,17.0480226 C16,16.5520584 16.380558,16.15 16.85,16.15 L23.6682557,16.15 C24.1376977,16.15 24.5182557,16.5520584 24.5182557,17.0480226 C24.5182557,17.5439868 24.1376977,17.9460453 23.6682557,17.9460453 L17.7,17.9460453 L17.7,33.0539555 L33,33.0539555 L33,27.9104715 Z M25.8521612,24.0267992 L25.85,17.4631511 C25.85,17.015777 26.2125459,16.6526907 26.6604603,16.6526907 C27.1078344,16.6526907 27.4709207,17.015777 27.4709207,17.4631511 L27.4720013,22.0746704 L33.309477,16.2371947 C33.4677869,16.0788848 33.6752648,16 33.8827426,16 C34.0902204,16 34.2976983,16.0788848 34.4560082,16.2371947 C34.7726281,16.5532743 34.7726281,17.0665658 34.4560082,17.3831856 L28.6239356,23.2152583 L33.2230279,23.2152583 C33.670402,23.2152583 34.0334882,23.5778042 34.0334882,24.0257186 C34.0334882,24.473633 33.670402,24.8361789 33.2230279,24.8361789 L26.6631619,24.8361789 C26.5626648,24.8361789 26.4702723,24.8134861 26.381662,24.7805273 C26.3649125,24.7740437 26.3492436,24.7643181 26.3324941,24.7567538 C26.2903501,24.7378431 26.246045,24.7232548 26.2093041,24.6978604 C26.1682408,24.6703047 26.1325805,24.6357251 26.0931381,24.5973633 C26.0191161,24.5238816 25.9618435,24.4358115 25.9142965,24.3228874 C25.878096,24.2304949 25.8521612,24.1321591 25.8521612,24.0267992 Z" id="icon-popin"></path>
                </g>
            </g>
        </g>
    </g>
</svg>