<?xml version="1.0" encoding="UTF-8"?>
<svg width="50px" height="50px" viewBox="0 0 50 50" version="1.1" xmlns="http://www.w3.org/2000/svg" xmlns:xlink="http://www.w3.org/1999/xlink">
    <!-- Generator: sketchtool 49.2 (51160) - http://www.bohemiancoding.com/sketch -->
    <title>1C3AB667-860B-4FB6-8866-51DF8432CD5E</title>
    <desc>Created with sketchtool.</desc>
    <defs></defs>
    <g id="Stlyes" stroke="none" stroke-width="1" fill="none" fill-rule="evenodd">
        <g id="Styles_Desktop-01" transform="translate(-100.000000, -550.000000)" fill="#DC2B67">
            <g id="Icons" transform="translate(100.000000, 276.000000)">
                <g id="Icon-/-Warning" transform="translate(0.000000, 274.000000)">
                    <path d="M49.6820583,24.2354566 L25.768495,0.317993542 C25.3445727,-0.105997847 24.6554273,-0.105997847 24.231505,0.317993542 L0.317941694,24.2354566 C-0.105980565,24.6594479 -0.105980565,25.3487057 0.317941694,25.7726971 L24.2445488,49.6901601 C24.6662971,50.10328 25.3337029,50.10328 25.7554512,49.6901601 L49.6820583,25.7726971 C50.1059806,25.3487057 50.1059806,24.6616223 49.6820583,24.2354566 L49.6820583,24.2354566 Z M23.9097589,13.0464325 C23.9119329,12.4463216 24.3989,11.9592751 24.998913,11.9592751 C25.5967521,11.9592751 26.0858932,12.4463216 26.0837192,13.0464325 L26.0837192,30.440951 C26.0858932,31.0410619 25.5967521,31.5281085 24.998913,31.5281085 C24.3989,31.5281085 23.9119329,31.0410619 23.9097589,30.440951 L23.9097589,13.0464325 L23.9097589,13.0464325 Z M24.998913,40.2253677 C23.796713,40.2253677 22.8249527,39.253449 22.8249527,38.0510529 C22.8249527,36.8508311 23.796713,35.8767381 24.998913,35.8767381 C26.1967651,35.8767381 27.1728733,36.8508311 27.1728733,38.0510529 C27.1728733,39.253449 26.1967651,40.2253677 24.998913,40.2253677 L24.998913,40.2253677 Z" id="icon-warning"></path>
                </g>
            </g>
        </g>
    </g>
</svg>