<?xml version="1.0" encoding="UTF-8"?>
<svg width="16px" height="26px" viewBox="0 0 16 26" version="1.1" xmlns="http://www.w3.org/2000/svg" xmlns:xlink="http://www.w3.org/1999/xlink">
    <!-- Generator: sketchtool 49.2 (51160) - http://www.bohemiancoding.com/sketch -->
    <title>D6A685FB-CB4C-47A1-A4C4-C15F98AAA81C</title>
    <desc>Created with sketchtool.</desc>
    <defs></defs>
    <g id="Stlyes" stroke="none" stroke-width="1" fill="none" fill-rule="evenodd">
        <g id="Styles_Desktop-01" transform="translate(-187.000000, -768.000000)" fill="#FFFFFF">
            <g id="Video-Controls" transform="translate(100.000000, 693.000000)">
                <g id="Audio-/-Active" transform="translate(70.000000, 63.000000)">
                    <path d="M32.4828896,22.6949526 C32.4828896,26.6945443 29.4340902,29.9960389 25.5380186,30.3963166 L25.5380186,36.4073832 L28.429149,36.4073832 C28.8687112,36.4073832 29.2254574,36.7641294 29.2254574,37.2036916 C29.2254574,37.6432538 28.8687112,38 28.429149,38 L21.0548024,38 C20.6147092,38 20.258494,37.6432538 20.258494,37.2036916 C20.258494,36.7641294 20.6147092,36.4073832 21.0548024,36.4073832 L23.9454018,36.4073832 L23.9454018,30.3963166 C20.0493303,29.9960389 17,26.6950751 17,22.6949526 C17,22.2548595 17.3562153,21.8986442 17.7963084,21.8986442 C18.2364015,21.8986442 18.5926168,22.2548595 18.5926168,22.6949526 C18.5926168,26.0861647 21.3510291,28.8445769 24.7417102,28.8445769 C28.1323914,28.8445769 30.8902728,26.0861647 30.8902728,22.6949526 C30.8902728,22.2548595 31.2470189,21.8986442 31.6865812,21.8986442 C32.1261434,21.8986442 32.4828896,22.2548595 32.4828896,22.6949526 Z M24.7417102,27.1792306 C22.2694381,27.1792306 20.258494,25.1677556 20.258494,22.6949526 L20.258494,16.4832163 C20.258494,14.011475 22.2694381,12 24.7417102,12 C27.2139824,12 29.2249265,14.0109441 29.2249265,16.4832163 L29.2249265,22.6944218 C29.2249265,25.1672248 27.2139824,27.1792306 24.7417102,27.1792306 Z M21.8511107,16.4832163 L21.8511107,22.6949526 C21.8511107,24.2896929 23.1480317,25.5871447 24.7417102,25.5871447 C26.3359196,25.5871447 27.6323097,24.2896929 27.6323097,22.6949526 L27.6323097,16.4832163 C27.6323097,14.8895377 26.3359196,13.5926168 24.7417102,13.5926168 C23.1480317,13.5926168 21.8511107,14.8895377 21.8511107,16.4832163 Z" id="icon-mic"></path>
                </g>
            </g>
        </g>
    </g>
</svg>