<?xml version="1.0" encoding="UTF-8"?>
<svg width="26px" height="26px" viewBox="0 0 26 26" version="1.1" xmlns="http://www.w3.org/2000/svg" xmlns:xlink="http://www.w3.org/1999/xlink">
    <!-- Generator: sketchtool 49.2 (51160) - http://www.bohemiancoding.com/sketch -->
    <title>Audio Off</title>
    <desc>Created with sketchtool.</desc>
    <defs></defs>
    <g id="Stlyes" stroke="none" stroke-width="1" fill="none" fill-rule="evenodd">
        <g id="Styles_Desktop-01" transform="translate(-182.000000, -838.000000)" fill="#FFFFFF">
            <g id="Video-Controls" transform="translate(100.000000, 693.000000)">
                <g id="Audio-/-Inactive" transform="translate(70.000000, 133.000000)">
                    <path d="M31.6865,21.8984 C32.1255,21.8984 32.4825,22.2544 32.4825,22.6944 C32.4825,26.6944 29.4335,29.9964 25.5385,30.3964 L25.5385,36.4074 L28.4285,36.4074 C28.8695,36.4074 29.2255,36.7634 29.2255,37.2044 C29.2255,37.6434 28.8695,38.0004 28.4285,38.0004 L21.0545,38.0004 C20.6145,38.0004 20.2585,37.6434 20.2585,37.2044 C20.2585,36.7634 20.6145,36.4074 21.0545,36.4074 L23.9455,36.4074 L23.9455,30.3964 C22.4705,30.2454 21.1185,29.6764 20.0055,28.8134 L21.4505,27.8804 C22.4035,28.4874 23.5305,28.8444 24.7415,28.8444 C28.1325,28.8444 30.8905,26.0854 30.8905,22.6944 C30.8905,22.2544 31.2475,21.8984 31.6865,21.8984 Z M29.207,22.8716 C29.111,25.2606 27.153,27.1796 24.742,27.1796 C24.145,27.1796 23.577,27.0566 23.055,26.8436 L25.05,25.5566 C25.979,25.4556 26.771,24.9206 27.225,24.1516 L29.207,22.8716 Z M12.1069,30.6016 C11.8839,30.2306 12.0209,29.7246 12.4109,29.4726 L36.7829,13.7326 C37.1739,13.4806 37.6709,13.5776 37.8939,13.9486 C38.1159,14.3196 37.9789,14.8256 37.5889,15.0776 L13.2159,30.8176 C13.0739,30.9096 12.9169,30.9556 12.7649,30.9566 C12.4999,30.9616 12.2479,30.8376 12.1069,30.6016 Z M18.6123,23.0874 L17.1233,24.0484 C17.0453,23.6084 17.0003,23.1574 17.0003,22.6944 C17.0003,22.2544 17.3563,21.8984 17.7963,21.8984 C18.2363,21.8984 18.5923,22.2544 18.5923,22.6944 C18.5923,22.8274 18.6043,22.9574 18.6123,23.0874 Z M21.8511,20.9956 L20.2581,22.0246 L20.2581,16.4836 C20.2581,14.0116 22.2691,11.9996 24.7421,11.9996 C27.1341,11.9996 29.0761,13.8876 29.2011,16.2486 L27.6331,17.2626 L27.6331,16.4836 C27.6331,14.8896 26.3361,13.5926 24.7421,13.5926 C23.1481,13.5926 21.8511,14.8896 21.8511,16.4836 L21.8511,20.9956 Z" id="icon-nomic"></path>
                </g>
            </g>
        </g>
    </g>
</svg>
