<?xml version="1.0" encoding="UTF-8"?>
<svg width="50px" height="50px" viewBox="0 0 50 50" version="1.1" xmlns="http://www.w3.org/2000/svg" xmlns:xlink="http://www.w3.org/1999/xlink">
    <!-- Generator: sketchtool 49.2 (51160) - http://www.bohemiancoding.com/sketch -->
    <title>F0F04D08-174F-4876-B5F1-E230EFF4E6FB</title>
    <desc>Created with sketchtool.</desc>
    <defs></defs>
    <g id="Stlyes" stroke="none" stroke-width="1" fill="none" fill-rule="evenodd">
        <g id="Styles_Desktop-01" transform="translate(-310.000000, -409.000000)" fill="#7C8087" fill-rule="nonzero">
            <g id="Icons" transform="translate(100.000000, 276.000000)">
                <g id="Icon-/-Collapse" transform="translate(210.000000, 133.000000)">
                    <path d="M47.5641026,0 L47.6282051,0 C48.9381113,0 50,1.06188873 50,2.37179487 L50,47.6282051 C50,48.9381113 48.9381113,50 47.6282051,50 L47.5641026,50 C46.2541964,50 45.1923077,48.9381113 45.1923077,47.6282051 L45.1923077,2.37179487 C45.1923077,1.06188873 46.2541964,0 47.5641026,0 Z M19.8831465,15.3517818 C18.9868875,14.4532486 19.0182652,13.010985 19.9516111,12.1503861 C20.8633062,11.3097504 22.2970046,11.3385836 23.1724124,12.2162127 L34.9245476,23.9981679 C35.7989639,24.874803 35.7936637,26.2750994 34.9128311,27.145398 L23.1606959,38.7569877 C22.2788611,39.6282765 20.844998,39.6470762 19.9395035,38.7999079 C19.0124833,37.9326005 18.9920242,36.4901383 19.894863,35.5980967 L27.7589531,27.8280543 L2.70164836,27.8280543 C1.24842893,27.8280543 0,26.813571 0,25.4524887 C0,24.0914064 1.24842893,23.0769231 2.70164836,23.0769231 L27.5887355,23.0769231 L19.8831465,15.3517818 Z" id="icon-collapse"></path>
                </g>
            </g>
        </g>
    </g>
</svg>