<?xml version="1.0" encoding="UTF-8"?>
<svg width="26px" height="16px" viewBox="0 0 26 16" version="1.1" xmlns="http://www.w3.org/2000/svg" xmlns:xlink="http://www.w3.org/1999/xlink">
    <!-- Generator: sketchtool 49.2 (51160) - http://www.bohemiancoding.com/sketch -->
    <title>6EE05D81-6ABD-4B91-AAA1-EA3047234B86</title>
    <desc>Created with sketchtool.</desc>
    <defs></defs>
    <g id="Stlyes" stroke="none" stroke-width="1" fill="none" fill-rule="evenodd">
        <g id="Styles_Desktop-01" transform="translate(-112.000000, -773.000000)" fill="#FFFFFF">
            <g id="Video-Controls" transform="translate(100.000000, 693.000000)">
                <g id="Video-/-Active" transform="translate(0.000000, 63.000000)">
                    <path d="M37.5907309,19.1418947 C37.8428746,19.2825643 37.9994692,19.5485096 38,19.8372805 L38,29.1952634 C38,29.4835035 37.8434055,29.7499796 37.5907309,29.8911801 C37.4707636,29.9575337 37.3369947,29.9915067 37.2037566,29.9915067 C37.0583095,29.9915067 36.9128624,29.9506329 36.7849326,29.8720702 L32.5091058,27.2285423 L32.5091058,28.9038383 C32.5091058,30.6290323 31.1050633,32.0320131 29.3798693,32.0320131 L15.1287056,32.0320131 C13.4035116,32.0320131 12,30.6290323 12,28.9038383 L12,20.1287056 C12,18.4035116 13.4035116,17 15.1287056,17 L29.3793385,17 C31.1045325,17 32.5080441,18.4035116 32.5080441,20.1287056 L32.5080441,21.8034708 L36.7844018,19.1599428 C37.0296448,19.0086566 37.3385872,19.0006942 37.5907309,19.1418947 Z M36.4069824,27.7668028 L36.4069824,21.2652103 L32.5080441,23.6757044 L32.5080441,25.3563087 L36.4069824,27.7668028 Z M30.916619,28.9043691 L30.916619,20.1287056 C30.916619,19.2815027 30.2265414,18.5924867 29.3798693,18.5924867 L15.1287056,18.5924867 C14.2815027,18.5924867 13.5924867,19.2815027 13.5924867,20.1287056 L13.5924867,28.9043691 C13.5924867,29.7515721 14.2815027,30.4400572 15.1287056,30.4400572 L29.3798693,30.4400572 C30.2265414,30.4400572 30.916619,29.7515721 30.916619,28.9043691 Z" id="icon-camera"></path>
                </g>
            </g>
        </g>
    </g>
</svg>