<?xml version="1.0" encoding="UTF-8"?>
<svg width="19px" height="19px" viewBox="0 0 19 19" version="1.1" xmlns="http://www.w3.org/2000/svg" xmlns:xlink="http://www.w3.org/1999/xlink">
    <!-- Generator: sketchtool 49.2 (51160) - http://www.bohemiancoding.com/sketch -->
    <title>85D0DB01-6237-4B68-8DF3-A1A468B657C0</title>
    <desc>Created with sketchtool.</desc>
    <defs></defs>
    <g id="Stlyes" stroke="none" stroke-width="1" fill="none" fill-rule="evenodd">
        <g id="Styles_Desktop-01" transform="translate(-466.000000, -842.000000)" fill="#FFFFFF" fill-rule="nonzero">
            <g id="Video-Controls" transform="translate(100.000000, 693.000000)">
                <g id="Popout-/-Inactive" transform="translate(350.000000, 133.000000)">
                    <path d="M33,27.9104715 C33,27.4145073 33.380558,27.0124489 33.85,27.0124489 C34.319442,27.0124489 34.7,27.4145073 34.7,27.9104715 L34.7,33.9519781 C34.7,34.4479423 34.319442,34.8500008 33.85,34.8500008 L16.85,34.8500008 C16.380558,34.8500008 16,34.4479423 16,33.9519781 L16,17.0480226 C16,16.5520584 16.380558,16.15 16.85,16.15 L23.6682557,16.15 C24.1376977,16.15 24.5182557,16.5520584 24.5182557,17.0480226 C24.5182557,17.5439868 24.1376977,17.9460453 23.6682557,17.9460453 L17.7,17.9460453 L17.7,33.0539555 L33,33.0539555 L33,27.9104715 Z M34.6913119,16.8093797 L34.6934731,23.3730279 C34.6934731,23.820402 34.3309272,24.1834882 33.8830128,24.1834882 C33.4356386,24.1834882 33.0725524,23.820402 33.0725524,23.3730279 L33.0714718,18.7615085 L27.2339961,24.5989842 C27.0756862,24.7572941 26.8682083,24.8361789 26.6607305,24.8361789 C26.4532526,24.8361789 26.2457748,24.7572941 26.0874649,24.5989842 C25.770845,24.2829047 25.770845,23.7696131 26.0874649,23.4529933 L31.9195375,17.6209207 L27.3204452,17.6209207 C26.8730711,17.6209207 26.5099849,17.2583748 26.5099849,16.8104603 C26.5099849,16.3625459 26.8730711,16 27.3204452,16 L33.8803112,16 C33.9808083,16 34.0732008,16.0226929 34.1618111,16.0556516 C34.1785606,16.0621353 34.1942295,16.0718608 34.210979,16.0794251 C34.253123,16.0983359 34.2974281,16.1129241 34.334169,16.1383186 C34.3752323,16.1658742 34.4108926,16.2004539 34.450335,16.2388156 C34.524357,16.3122974 34.5816296,16.4003674 34.6291766,16.5132915 C34.6653771,16.605684 34.6913119,16.7040199 34.6913119,16.8093797 Z" id="icon-popout"></path>
                </g>
            </g>
        </g>
    </g>
</svg>