<?xml version="1.0" encoding="UTF-8"?>
<svg width="200px" height="25px" viewBox="0 0 200 25" version="1.1" xmlns="http://www.w3.org/2000/svg" xmlns:xlink="http://www.w3.org/1999/xlink">
    <!-- Generator: sketchtool 49.2 (51160) - http://www.bohemiancoding.com/sketch -->
    <title>A486F2A7-72A4-4302-8004-ABBCF5DBA972</title>
    <desc>Created with sketchtool.</desc>
    <defs></defs>
    <g id="Stlyes" stroke="none" stroke-width="1" fill="none" fill-rule="evenodd">
        <g id="Styles_Desktop-01" transform="translate(-100.000000, -158.000000)" fill="#000000">
            <g id="Logo" transform="translate(100.000000, 93.000000)">
                <path d="M197.611624,65.001111 C197.746052,65.001111 197.882703,65 198.021575,65 C198.020464,67.6474569 198.021575,70.2960247 198.021575,72.9434816 L197.643843,72.9434816 C197.428313,71.1259241 196.956148,69.2372642 195.732963,67.8207692 C194.996386,66.9642064 193.962067,66.3898315 192.861089,66.1598594 C191.862321,65.9576617 190.795784,65.9098897 189.828123,66.2765119 C188.706037,66.6764635 187.782816,67.6185715 187.448412,68.7662101 C187.154003,69.7883085 187.236215,70.941502 187.770595,71.8725003 C188.222762,72.6646265 188.953785,73.2456672 189.69925,73.7467175 C191.163517,74.6988244 192.757768,75.423181 194.299804,76.2353048 C195.498547,76.8685614 196.779503,77.3896093 197.813822,78.2883892 C199.139217,79.3715913 200.04133,81.036945 199.996891,82.7734012 C200.061327,84.7687148 199.12033,86.7651395 197.537189,87.9816587 C195.825174,89.3414939 193.515454,89.7892174 191.382379,89.4614793 C190.513596,89.3226073 189.674809,89.0393083 188.866018,88.7004605 C188.086112,88.3893871 187.205108,88.1494162 186.37743,88.4082737 C185.83083,88.5749201 185.405326,89.0181997 185.215349,89.5503575 C185.083143,89.5514684 184.95427,89.5514684 184.827618,89.5525794 C184.82984,86.9017896 184.825396,84.2509998 184.82984,81.60021 C184.907609,81.6046539 185.062034,81.6135417 185.139803,81.6179857 C185.346444,83.4144346 185.923041,85.2486567 187.19622,86.5818284 C188.700482,88.1982991 191.005758,88.8559972 193.163275,88.7282349 C194.7853,88.6193592 196.419547,87.8127903 197.271665,86.3896295 C197.782715,85.5408435 197.998244,84.5187451 197.883814,83.535531 C197.718278,82.3823374 196.950593,81.4235648 196.082921,80.6958752 C194.399791,79.2816022 192.317822,78.5039187 190.391388,77.498485 C188.781584,76.6408112 187.203997,75.5831616 186.165234,74.0500141 C185.050925,72.4168787 184.7954,70.1738173 185.701957,68.3907001 C186.416315,66.9442088 187.812812,65.9076678 189.350403,65.473276 C190.799117,65.048883 192.352262,65.1366501 193.803197,65.5077162 C194.611988,65.7188018 195.396337,66.0676484 196.24179,66.1131984 C196.899488,66.1287521 197.426091,65.5999273 197.611624,65.001111 Z M154.731244,65.8921141 C161.118248,65.8854482 167.50414,65.8910031 173.890033,65.8887812 C174.766593,68.0940694 175.6276,70.3049125 176.501939,72.5113117 C176.356401,72.5590837 176.214196,72.6057447 176.073102,72.6535167 C175.011008,70.1960368 173.141235,67.9407546 170.567102,67.0097564 C168.991738,66.3987193 167.280834,66.6697976 165.636589,66.6120268 L165.636589,81.4491172 C165.658809,82.9811537 165.566598,84.5198561 165.747687,86.0463378 C165.848786,86.7829151 166.057649,87.6205914 166.742011,88.0305417 C167.556356,88.4915969 168.535127,88.4538237 169.441683,88.4693774 C169.439461,88.5993616 169.439461,88.7282349 169.441683,88.8582191 L159.192926,88.8582191 L159.192926,88.4693774 C160.082818,88.4593786 161.032703,88.4849311 161.842604,88.0594271 C162.465862,87.7139134 162.728053,86.9951116 162.840261,86.3307477 C163.051347,85.0075748 162.98691,83.6632933 162.99802,82.3290106 L162.99802,66.6109158 C161.89482,66.6264695 160.79051,66.5809195 159.689532,66.6342463 C157.689775,66.839777 155.873328,67.9585303 154.562376,69.4494607 C153.725811,70.3949016 153.061447,71.4858805 152.56484,72.6446289 C152.418191,72.5979679 152.274875,72.5524179 152.13267,72.5068678 C152.995899,70.3004686 153.872459,68.0996243 154.731244,65.8921141 Z M131.357444,65.2355603 C134.131552,64.9978114 136.992317,65.5955167 139.382027,67.043119 C142.367221,68.8106825 144.578064,71.8814214 145.177991,75.3121167 C145.651267,77.8984698 145.202433,80.6336939 143.953695,82.9445249 C142.249457,86.1419151 139.073176,88.4738546 135.542492,89.2404284 C132.936142,89.8103593 130.152035,89.6392689 127.664558,88.6538328 C124.897116,87.5717417 122.52407,85.4931048 121.134239,82.8612016 C119.569984,79.9537763 119.330013,76.3742102 120.506537,73.2879176 C121.5453,70.4927009 123.665043,68.1418747 126.285837,66.7376005 C127.848981,65.8954803 129.58877,65.3877641 131.357444,65.2355603 Z M130.94305,66.0876793 C128.636663,66.4098624 126.515809,67.7174817 125.138198,69.5872551 C123.233984,72.1558326 122.475188,75.4687644 122.746266,78.6294923 C123.027343,81.6791227 124.274969,84.777636 126.686899,86.757396 C128.96329,88.6482779 132.168457,89.1393295 134.999225,88.45719 C136.813449,88.0239092 138.469915,86.9807023 139.660882,85.5486536 C141.067378,83.8744121 141.903944,81.7757776 142.253901,79.6304821 C142.659408,77.1985547 142.394995,74.6610845 141.517324,72.3580303 C140.782968,70.437152 139.548673,68.6629227 137.829993,67.5030633 C135.840234,66.1343403 133.302764,65.7343888 130.94305,66.0876793 Z M90.8678854,66.27429 C90.8667745,66.1365289 90.8667745,65.9987678 90.8678854,65.8610067 L99.6723738,65.8610067 C100.865562,65.8721165 102.067639,65.803236 103.250829,66.0087666 C104.838414,66.2609583 106.433776,66.9164344 107.499203,68.160728 C108.652396,69.4916778 109.024573,71.4781036 108.359099,73.1179049 C107.604746,74.9299075 105.7783,76.1575364 103.872976,76.458611 C105.966055,76.698582 108.080243,77.5751424 109.458965,79.2149436 C110.415516,80.3403627 110.822133,81.8790651 110.623269,83.3344443 C110.455511,84.8464832 109.607836,86.2407586 108.403538,87.1562032 C106.842616,88.3549468 104.842858,88.816002 102.907537,88.8848826 C98.8946903,88.8882155 94.8807324,88.8848826 90.8678854,88.8859935 C90.8667745,88.7471215 90.8667745,88.6082494 90.8678854,88.4693774 C91.69223,88.4560457 92.5599026,88.4571566 93.3175885,88.0916454 C93.8430804,87.8461196 94.1741513,87.3228497 94.33191,86.7806932 C94.5607711,85.988567 94.5885456,85.1564456 94.61632,84.338767 C94.6174309,79.669333 94.6185419,75.0010099 94.61632,70.3326869 C94.5807687,69.4905668 94.5596602,68.630671 94.2930258,67.8252131 C94.1286013,67.3152749 93.7753108,66.8531087 93.2798153,66.6309134 C92.5265733,66.2865107 91.6777873,66.3042863 90.8678854,66.27429 Z M97.3115488,76.9441078 C97.3148818,79.4482487 97.304883,81.9523896 97.3171037,84.4565305 C97.3848733,85.4975154 97.4082038,86.694037 98.1803324,87.4917181 C99.0746684,88.2594028 100.346736,88.1616369 101.449936,88.1916333 C102.79644,88.2427382 104.227377,88.1360844 105.383904,87.3750656 C106.695967,86.5573869 107.441432,85.0564577 107.6103,83.5510847 C107.824719,81.7957419 107.47365,79.8648648 106.259353,78.5194723 C105.308357,77.4618228 103.869643,76.9707712 102.472034,76.9507736 C100.752243,76.934109 99.0313404,76.9474407 97.3115488,76.9441078 Z M97.3115488,66.555367 L97.3115488,76.2486365 C98.6213901,76.2486365 99.9301203,76.2497475 101.239962,76.2486365 C102.432039,76.225306 103.665223,75.8098008 104.477347,74.903244 C105.477226,73.8367066 105.76608,72.2935604 105.660537,70.8759544 C105.570548,69.714984 105.147266,68.5295722 104.275149,67.7252252 C103.450805,66.9108795 102.267615,66.5753646 101.132197,66.557589 C99.8590178,66.5520341 98.5847278,66.556478 97.3115488,66.555367 Z M62.9823767,66.2743344 C62.9812657,66.1365733 62.9812657,65.9988123 62.9823767,65.8610512 C66.3897415,65.8599402 69.7971062,65.8621622 73.204471,65.8610512 C73.202249,65.9988123 73.202249,66.1365733 73.20336,66.2754454 C72.3723496,66.3065527 71.5002331,66.2687795 70.7236606,66.6131822 C70.2492736,66.8187129 69.9137587,67.2586595 69.7548891,67.7419343 C69.4415937,68.6795984 69.4704791,69.6828102 69.4271511,70.6593584 C69.4249291,74.3633539 69.4271511,78.0673494 69.4260401,81.7713448 C69.429373,83.0111946 69.4004876,84.2565991 69.5460255,85.489783 C69.6449024,86.2385811 69.8359904,87.0562598 70.4481384,87.5573102 C71.1147243,88.0872459 72.0068384,88.1339069 72.8222951,88.1827899 C74.0321484,88.2038985 75.2420018,88.1861228 76.4518551,88.1916777 C77.4883961,88.1750131 78.5493786,88.2783339 79.5570343,87.9717044 C81.3434844,87.4739869 82.7444257,86.0352724 83.4965567,84.3765846 C83.6332068,84.4010261 83.7709679,84.4254676 83.90984,84.45102 C83.486558,85.9308406 83.0488332,87.4073283 82.6177744,88.884927 C76.0730121,88.887149 69.5282499,88.886038 62.9834877,88.886038 C62.9823767,88.7471659 62.9812657,88.6082939 62.9823767,88.4705328 C64.0178067,88.4349816 65.2698772,88.5260816 66.0397839,87.6972932 C66.7819161,86.717412 66.6808173,85.4009049 66.7519198,84.2377125 C66.7696954,80.7503575 66.7541417,77.2630024 66.7596966,73.7756474 C66.741921,72.143623 66.8152454,70.5060437 66.6641526,68.8784632 C66.5786075,68.1041126 66.4041842,67.2164424 65.7098239,66.7509433 C64.8977001,66.2498929 63.8989323,66.3165515 62.9823767,66.2743344 Z M41.7038449,65.1888993 C41.7716144,65.1911213 41.9071536,65.1944542 41.9749231,65.1955652 C44.8834595,71.9069739 47.8019946,78.6139387 50.7127529,85.3231254 C51.1371459,86.2574566 51.6404182,87.2206732 52.5047579,87.8206005 C53.3213255,88.3860875 54.3534227,88.4638558 55.3166392,88.4727436 C55.3155283,88.6105047 55.3155283,88.7482658 55.3166392,88.8860269 C51.8259513,88.8860269 48.3352633,88.8871379 44.8445753,88.8849159 C44.8445753,88.7471548 44.8445753,88.6082828 44.8456863,88.4705217 C45.6978052,88.4594119 46.5776985,88.4460802 47.3809345,88.1283409 C47.8219921,87.9572506 48.1952802,87.5750747 48.2674937,87.0951328 C48.3630377,86.475208 48.1408424,85.8641709 47.9086483,85.2997949 C47.2442844,83.7722023 46.5699217,82.2490536 45.9055578,80.72035 L36.0200894,80.72035 C35.3535035,82.2868268 34.6746969,83.8477487 34.009222,85.4153365 C33.7848048,85.9730466 33.6126034,86.6085252 33.8081353,87.1995646 C33.963672,87.6695077 34.3958418,87.9783591 34.8402324,88.1494495 C35.566811,88.4227497 36.3556043,88.4605229 37.1244,88.4716327 C37.123289,88.6093937 37.1244,88.7471548 37.1244,88.8860269 L28.3476861,88.8860269 C28.3476861,88.7471548 28.3476861,88.6105047 28.348797,88.4727436 C29.3620076,88.4671888 30.4329888,88.3060972 31.2662212,87.6861723 C32.078345,87.1062426 32.5905051,86.2152395 32.9960115,85.3253474 C35.9012149,78.6139387 38.7975305,71.899197 41.7038449,65.1888993 Z M40.9239394,69.3439512 C39.3763492,72.8990758 37.8476456,76.4641993 36.3100542,80.0248788 C39.4130114,80.0271007 42.5159686,80.0237678 45.6189259,80.0271007 C44.0513381,76.4664212 42.497082,72.9012978 40.9239394,69.3439512 Z M2.58968609,65.9421302 C8.9800226,65.9476851 15.3714701,65.9399083 21.7618066,65.9465741 C22.6217024,68.1507514 23.4982628,70.3493738 24.3570476,72.554662 C24.2159536,72.602434 24.0737486,72.650206 23.9326546,72.696867 C23.0794246,70.7304387 21.74292,68.9206581 19.9086979,67.7730194 C18.8132751,67.0908799 17.546762,66.663154 16.2513634,66.6398235 C15.330364,66.6364905 14.4093645,66.6398235 13.488365,66.6387125 C13.487254,72.4646729 13.488365,78.2917444 13.488365,84.1177049 C13.5305821,85.0842544 13.5094736,86.0752454 13.8083262,87.0073546 C13.9771946,87.5439562 14.3682584,88.0227871 14.902638,88.2272067 C15.6647679,88.5116167 16.4924453,88.5038399 17.2934593,88.497174 L17.2934593,88.9137902 C13.8772068,88.9137902 10.4609542,88.9126792 7.04581261,88.9137902 C7.04470163,88.7738071 7.04470163,88.6349351 7.04470163,88.496063 C8.06568898,88.4838423 9.25776671,88.5671655 10.0643356,87.8239223 C10.8175776,86.9695814 10.7720276,85.7408415 10.845352,84.6720821 C10.8553508,78.6616996 10.846463,72.650206 10.849796,66.6398235 C9.21888253,66.6875954 7.52686541,66.4476245 5.96261058,67.0331091 C3.37847937,67.9529976 1.47870965,70.2082798 0.428836907,72.6790914 C0.285520946,72.6357633 0.143315961,72.5913243 0,72.5468852 C0.847675027,70.339375 1.73201228,68.1463075 2.58968609,65.9421302 Z"></path>
            </g>
        </g>
    </g>
</svg>