<?xml version="1.0" encoding="UTF-8"?>
<svg width="127px" height="16px" viewBox="0 0 127 16" version="1.1" xmlns="http://www.w3.org/2000/svg" xmlns:xlink="http://www.w3.org/1999/xlink">
    <!-- Generator: Sketch 49 (51002) - http://www.bohemiancoding.com/sketch -->
    <title>talbots-logo</title>
    <desc>Created with Sketch.</desc>
    <defs></defs>
    <g id="Page-1" stroke="none" stroke-width="1" fill="none" fill-rule="evenodd">
        <g id="talbots-logo" fill="#000000" fill-rule="nonzero">
            <path d="M124.5,0 L124.8,0 L124.8,5 L124.6,5 C124.5,3.9 124.2,2.7 123.4,1.8 C122.9,1.3 122.3,0.9 121.6,0.8 C121,0.7 120.3,0.6 119.7,0.9 C119,1.1 118.4,1.7 118.2,2.5 C118,3.1 118.1,3.9 118.4,4.4 C118.7,4.9 119.1,5.3 119.6,5.6 C120.5,6.2 121.5,6.6 122.5,7.2 C123.2,7.6 124,7.9 124.7,8.5 C125.5,9.2 126.1,10.2 126.1,11.3 C126.1,12.5 125.6,13.8 124.6,14.6 C123.5,15.4 122.1,15.7 120.8,15.5 C120.3,15.4 119.7,15.2 119.2,15 C118.7,14.8 118.2,14.7 117.6,14.8 C117.3,14.9 117,15.2 116.9,15.5 L116.7,15.5 L116.7,10.5 L116.9,10.5 C117,11.6 117.4,12.8 118.2,13.6 C119.1,14.6 120.6,15 121.9,14.9 C122.9,14.8 123.9,14.3 124.5,13.4 C124.8,12.9 125,12.2 124.9,11.6 C124.8,10.9 124.3,10.3 123.8,9.8 C122.7,8.9 121.4,8.4 120.2,7.8 C119.2,7.3 118.2,6.6 117.6,5.6 C116.9,4.6 116.7,3.2 117.3,2.1 C117.7,1.2 118.6,0.5 119.6,0.3 C120.5,4.99600361e-16 121.5,0.1 122.4,0.3 C122.9,0.4 123.4,0.6 123.9,0.7 C124.1,0.7 124.4,0.4 124.5,5.55111512e-16 Z M97.7,0.6 L109.7,0.6 C110.2,2 110.8,3.4 111.3,4.7 C111.2,4.7 111.1,4.8 111,4.8 C110.3,3.3 109.2,1.9 107.6,1.3 C106.6,0.9 105.5,1.1 104.5,1.1 L104.5,10.4 C104.5,11.4 104.5,12.3 104.6,13.3 C104.7,13.8 104.8,14.3 105.2,14.5 C105.7,14.8 106.3,14.8 106.9,14.8 L106.9,15 L100.5,15 L100.5,14.8 C101.1,14.8 101.6,14.8 102.2,14.5 C102.6,14.3 102.8,13.8 102.8,13.4 C102.9,12.6 102.9,11.7 102.9,10.9 L102.9,1 L100.8,1 C99.6,1.1 98.4,1.8 97.6,2.8 C97.1,3.4 96.7,4.1 96.4,4.8 C96.3,4.8 96.2,4.7 96.1,4.7 C96.6,3.3 97.2,1.9 97.7,0.6 Z M83.1,0.1 C84.8,-1.11022302e-16 86.6,0.3 88.1,1.2 C90,2.3 91.3,4.2 91.7,6.4 C92,8 91.7,9.7 90.9,11.2 C89.8,13.2 87.8,14.7 85.6,15.1 C84,15.5 82.2,15.3 80.7,14.7 C79,14 77.5,12.7 76.6,11.1 C75.6,9.3 75.5,7 76.2,5.1 C76.8,3.4 78.2,1.9 79.8,1 C80.9,0.6 82,0.2 83.1,0.1 Z M82.8,0.7 C81.4,0.9 80,1.7 79.2,2.9 C78,4.5 77.5,6.6 77.7,8.6 C77.9,10.5 78.7,12.4 80.2,13.7 C81.6,14.9 83.6,15.2 85.4,14.8 C86.5,14.5 87.6,13.9 88.3,13 C89.2,12 89.7,10.6 89.9,9.3 C90.2,7.8 90,6.2 89.4,4.8 C88.9,3.6 88.2,2.5 87.1,1.8 C85.9,0.7 84.3,0.5 82.8,0.7 Z M57.8,0.8 L57.8,0.5 L63.3,0.5 C64,0.5 64.8,0.5 65.5,0.6 C66.5,0.8 67.5,1.2 68.2,1.9 C68.9,2.7 69.2,4 68.7,5 C68.2,6.1 67.1,6.9 65.9,7.1 C67.2,7.2 68.5,7.8 69.4,8.8 C70,9.5 70.3,10.5 70.1,11.4 C70,12.3 69.5,13.2 68.7,13.8 C67.7,14.5 66.5,14.8 65.3,14.9 L57.8,14.9 L57.8,14.6 C58.3,14.6 58.9,14.6 59.3,14.4 C59.6,14.2 59.8,13.9 59.9,13.6 C60,13.1 60.1,12.6 60.1,12.1 L60.1,3.3 C60.1,2.8 60.1,2.2 59.9,1.7 C59.8,1.4 59.6,1.1 59.3,1 C58.8,0.8 58.3,0.8 57.8,0.8 Z M61.8,7.5 L61.8,12.2 C61.8,12.9 61.9,13.6 62.3,14.1 C62.9,14.6 63.7,14.5 64.3,14.5 C65.1,14.5 66,14.5 66.8,14 C67.6,13.5 68.1,12.6 68.2,11.6 C68.3,10.5 68.1,9.3 67.4,8.5 C66.8,7.8 65.9,7.5 65,7.5 L61.8,7.5 Z M61.8,1 L61.8,7 L64.3,7 C65,7 65.8,6.7 66.3,6.2 C66.9,5.5 67.1,4.6 67,3.7 C66.9,3 66.7,2.2 66.1,1.7 C65.6,1.2 64.8,1 64.1,1 L61.8,1 Z M40.4,0.8 L40.4,0.5 L46.8,0.5 L46.8,0.8 C46.3,0.8 45.7,0.8 45.3,1 C45,1.1 44.8,1.4 44.7,1.7 C44.5,2.3 44.5,2.9 44.5,3.5 L44.5,10.4 C44.5,11.2 44.5,12 44.6,12.7 C44.7,13.2 44.8,13.7 45.2,14 C45.6,14.3 46.2,14.4 46.7,14.4 L49,14.4 C49.6,14.4 50.3,14.5 50.9,14.3 C52,14 52.9,13.1 53.4,12.1 L53.7,12.1 C53.4,13 53.2,13.9 52.9,14.9 L40.6,14.9 L40.6,14.6 C41.2,14.6 42,14.6 42.5,14.1 C43,13.5 42.9,12.7 42.9,11.9 L42.9,5.4 C42.9,4.4 42.9,3.4 42.8,2.3 C42.7,1.8 42.6,1.3 42.2,1 C41.6,0.8 40.9,0.8 40.4,0.8 Z M27.1,0.1 L27.3,0.1 C29.1,4.3 30.9,8.5 32.8,12.7 C33.1,13.3 33.4,13.9 33.9,14.3 C34.4,14.7 35.1,14.7 35.7,14.7 L35.7,15 L29.2,15 L29.2,14.7 C29.7,14.7 30.3,14.7 30.8,14.5 C31.1,14.4 31.3,14.2 31.4,13.9 C31.5,13.5 31.3,13.1 31.2,12.8 C30.8,11.8 30.4,10.9 29.9,9.9 L23.7,9.9 C23.3,10.9 22.9,11.9 22.4,12.8 C22.3,13.1 22.2,13.5 22.3,13.9 C22.4,14.2 22.7,14.4 22.9,14.5 C23.4,14.7 23.8,14.7 24.3,14.7 L24.3,15 L18.8,15 L18.8,14.7 C19.4,14.7 20.1,14.6 20.6,14.2 C21.1,13.8 21.4,13.3 21.7,12.7 C23.4,8.5 25.2,4.3 27.1,0.1 Z M26.6,2.7 C25.6,4.9 24.7,7.2 23.7,9.4 L29.5,9.4 C28.5,7.2 27.6,4.9 26.6,2.7 Z M2.6,0.6 L14.6,0.6 C15.1,2 15.7,3.4 16.2,4.7 C16.1,4.7 16,4.8 15.9,4.8 C15.4,3.6 14.5,2.4 13.4,1.7 C12.7,1.3 11.9,1 11.1,1 L9.4,1 L9.4,11.9 C9.4,12.5 9.4,13.1 9.6,13.7 C9.7,14 9.9,14.3 10.3,14.5 C10.8,14.7 11.3,14.7 11.8,14.7 L11.8,15 L5.4,15 L5.4,14.7 C6,14.7 6.8,14.7 7.3,14.3 C7.8,13.8 7.7,13 7.8,12.3 L7.8,1 C6.8,1 5.7,0.9 4.7,1.2 C3.1,1.8 1.9,3.2 1.2,4.7 C1.1,4.7 1,4.6 0.9,4.6 C1.5,3.3 2.1,2 2.6,0.6 Z" id="Shape"></path>
        </g>
    </g>
</svg>